<svg width="300" height="243" viewBox="0 0 300 243" fill="none" xmlns="http://www.w3.org/2000/svg">
<path d="M251.013 3.29929L93.9692 44.5867L103.837 82.1212L260.881 40.8338L251.013 3.29929Z" fill="#1D1D1B"/>
<path d="M281.133 117.873L124.09 159.16L133.958 196.695L291.001 155.407L281.133 117.873Z" fill="#1D1D1B"/>
<path d="M158.668 47.634L193.243 179.145L230.778 169.277L196.203 37.766L158.668 47.634Z" fill="#1D1D1B"/>
<path d="M163.81 242.05C176.64 242.05 187.04 231.65 187.04 218.82C187.04 205.99 176.64 195.59 163.81 195.59C150.98 195.59 140.58 205.99 140.58 218.82C140.58 231.65 150.98 242.05 163.81 242.05Z" fill="#1D1D1B"/>
<path d="M275.91 212.57C288.74 212.57 299.14 202.17 299.14 189.34C299.14 176.51 288.74 166.11 275.91 166.11C263.08 166.11 252.68 176.51 252.68 189.34C252.68 202.17 263.08 212.57 275.91 212.57Z" fill="#1D1D1B"/>
<path d="M77.28 34.92C70.45 26.46 63.49 17.95 54.91 11.18C46.44 4.51001 36.24 -0.569991 25.19 0.0500091C19.88 0.350009 14.47 1.98001 10.47 5.61001C6.47 9.24001 4.12 15.45 5.66 21C8.86 32.53 21.81 35.34 32.01 37.32C45.53 39.94 59.05 42.55 72.57 45.16C74.93 45.62 76.42 43.63 76.7 41.4C76.87 40.07 76.82 38.61 76.26 37.38C75.87 36.52 75.17 35.23 74.15 35.03C63.07 32.89 52 30.75 40.92 28.61C35.67 27.6 30.36 26.75 25.19 25.37C22.8 24.73 20.42 23.95 18.19 22.87C16.36 21.98 14.93 21.02 13.27 19.36C12.7 18.79 13.15 19.22 13.26 19.35C13.11 19.16 12.96 18.98 12.82 18.79C12.65 18.56 12.51 18.29 12.33 18.07C11.94 17.57 12.64 18.8 12.39 18.22C12.3 18.01 12.2 17.81 12.12 17.61C11.97 17.25 12.12 16.91 12.04 17.45L12.13 17.75C12.09 17.59 12.05 17.43 12.03 17.27C11.95 16.61 12.03 18.49 12.07 17.55C12.11 16.61 12.03 17.97 12.01 18C12.05 17.93 12.08 17.5 12.09 17.38C12.19 16.36 11.76 18.14 12.04 17.56C12.13 17.38 12.22 17.15 12.26 16.95C12.38 16.37 11.83 17.64 12.16 17.13C12.28 16.94 12.37 16.74 12.49 16.55C12.61 16.36 12.73 16.17 12.86 15.98C13.08 15.66 13.3 15.42 12.92 15.85C13.6 15.07 14.34 14.36 15.16 13.74C15.22 13.69 15.85 13.24 15.53 13.46C15.21 13.68 15.87 13.26 15.93 13.22C16.43 12.92 16.95 12.64 17.48 12.39C19.64 11.38 21.5 10.92 23.75 10.66C28.61 10.1 33.18 10.72 37.69 12.3C42.2 13.88 46.07 16.12 49.87 18.94C54.42 22.31 58.56 26.21 62.41 30.36C62.85 30.83 63.29 31.31 63.72 31.79C63.34 31.37 63.82 31.9 63.86 31.95C64.14 32.27 64.43 32.59 64.71 32.92C65.6 33.94 66.48 34.98 67.35 36.02C69.13 38.14 70.86 40.3 72.6 42.45C73.22 43.22 74 43.95 75.07 43.92C76.05 43.9 76.99 43.14 77.46 42.33C78.65 40.3 78.85 36.88 77.28 34.94V34.92Z" fill="#1D1D1B"/>
<path d="M72.44 57.45C52.55 51.46 27.38 44.36 9.39 58.93C4.99 62.5 1.77 67.28 0.490001 72.82C-0.789999 78.36 0.250001 84.85 4.75 88.51C8.61 91.66 14.1 92.05 18.83 91.22C24.64 90.21 30.03 87.83 35.41 85.5C47.67 80.2 59.92 74.89 72.18 69.59C74.41 68.62 74.93 65.19 74.42 63.1C73.97 61.24 72.45 58.54 70.11 59.55C60.06 63.9 50.01 68.25 39.97 72.6C35.04 74.73 30.14 77.03 25.1 78.88C20.84 80.45 16.09 81.79 11.51 80.9C11.97 80.99 11.36 80.85 11.31 80.84C11.07 80.77 10.83 80.72 10.6 80.64C10.14 80.5 9.69 80.33 9.25 80.14C9.07 80.06 8 79.38 8.56 79.8C8.1 79.46 7.67 79.11 7.27 78.7C7.96 79.41 6.98 78.42 6.99 78.19C6.99 78.19 7.42 79.23 7.1 78.36C7.07 78.27 6.83 77.77 6.86 77.74C6.91 77.69 7.12 79.01 6.97 78.01C6.94 77.84 6.91 77.47 6.85 77.34C6.92 77.48 6.9 78.6 6.91 77.69C6.91 77.39 6.91 77.1 6.91 76.8C6.91 76.08 6.76 77.82 6.91 77.1C6.96 76.86 6.98 76.61 7.02 76.36C7.03 76.3 7.08 75.83 7.13 75.8C7.03 75.85 6.86 76.67 7.1 75.94C7.27 75.44 7.44 74.95 7.63 74.45C7.93 73.65 7.7 74.24 7.62 74.42C7.8 74.05 8 73.69 8.2 73.34C8.48 72.87 8.78 72.41 9.09 71.96C9.24 71.75 9.4 71.54 9.56 71.33C9.63 71.23 10.07 70.73 9.63 71.24C10.38 70.38 11.17 69.56 12.02 68.8C13.81 67.2 15.05 66.34 17.09 65.23C19.13 64.12 21.25 63.23 23.46 62.54C28.16 61.08 33.17 60.73 38.07 60.87C49.36 61.2 60.15 64.33 70.9 67.57C73.23 68.27 74.77 65.85 75.03 63.81C75.29 61.77 74.86 58.16 72.47 57.44L72.44 57.45Z" fill="#1D1D1B"/>
</svg>
