<?xml version="1.0" encoding="UTF-8"?>
<svg id="Ebene_2" data-name="Ebene 2" xmlns="http://www.w3.org/2000/svg" viewBox="0 0 299.15 242.06">
  <defs>
    <style>
      .cls-1 {
        fill: #1d1d1b;
      }
    </style>
  </defs>
  <g id="Ebene_1-2" data-name="Ebene 1">
    <rect class="cls-1" x="96.23" y="23.29" width="162.38" height="38.81" transform="translate(-5.02 46.53) rotate(-14.73)"/>
    <rect class="cls-1" x="126.36" y="137.86" width="162.38" height="38.81" transform="translate(-33.17 57.96) rotate(-14.73)"/>
    <rect class="cls-1" x="126.72" y="89.04" width="135.98" height="38.81" transform="translate(139.35 324.34) rotate(-104.73)"/>
    <circle class="cls-1" cx="163.81" cy="218.82" r="23.23"/>
    <circle class="cls-1" cx="275.91" cy="189.34" r="23.23"/>
    <path class="cls-1" d="M77.28,34.92c-6.83-8.46-13.79-16.97-22.37-23.74C46.44,4.51,36.24-.57,25.19.05c-5.31.3-10.72,1.93-14.72,5.56s-6.35,9.84-4.81,15.39c3.2,11.53,16.15,14.34,26.35,16.32,13.52,2.62,27.04,5.23,40.56,7.84,2.36.46,3.85-1.53,4.13-3.76.17-1.33.12-2.79-.44-4.02-.39-.86-1.09-2.15-2.11-2.35-11.08-2.14-22.15-4.28-33.23-6.42-5.25-1.01-10.56-1.86-15.73-3.24-2.39-.64-4.77-1.42-7-2.5-1.83-.89-3.26-1.85-4.92-3.51-.57-.57-.12-.14-.01-.01-.15-.19-.3-.37-.44-.56-.17-.23-.31-.5-.49-.72-.39-.5.31.73.06.15-.09-.21-.19-.41-.27-.61-.15-.36,0-.7-.08-.16l.09.3c-.04-.16-.08-.32-.1-.48-.08-.66,0,1.22.04.28s-.04.42-.06.45c.04-.07.07-.5.08-.62.1-1.02-.33.76-.05.18.09-.18.18-.41.22-.61.12-.58-.43.69-.1.18.12-.19.21-.39.33-.58s.24-.38.37-.57c.22-.32.44-.56.06-.13.68-.78,1.42-1.49,2.24-2.11.06-.05.69-.5.37-.28s.34-.2.4-.24c.5-.3,1.02-.58,1.55-.83,2.16-1.01,4.02-1.47,6.27-1.73,4.86-.56,9.43.06,13.94,1.64s8.38,3.82,12.18,6.64c4.55,3.37,8.69,7.27,12.54,11.42.44.47.88.95,1.31,1.43-.38-.42.1.11.14.16.28.32.57.64.85.97.89,1.02,1.77,2.06,2.64,3.1,1.78,2.12,3.51,4.28,5.25,6.43.62.77,1.4,1.5,2.47,1.47.98-.02,1.92-.78,2.39-1.59,1.19-2.03,1.39-5.45-.18-7.39h0Z"/>
    <path class="cls-1" d="M72.44,57.45c-19.89-5.99-45.06-13.09-63.05,1.48-4.4,3.57-7.62,8.35-8.9,13.89s-.24,12.03,4.26,15.69c3.86,3.15,9.35,3.54,14.08,2.71,5.81-1.01,11.2-3.39,16.58-5.72,12.26-5.3,24.51-10.61,36.77-15.91,2.23-.97,2.75-4.4,2.24-6.49-.45-1.86-1.97-4.56-4.31-3.55-10.05,4.35-20.1,8.7-30.14,13.05-4.93,2.13-9.83,4.43-14.87,6.28-4.26,1.57-9.01,2.91-13.59,2.02.46.09-.15-.05-.2-.06-.24-.07-.48-.12-.71-.2-.46-.14-.91-.31-1.35-.5-.18-.08-1.25-.76-.69-.34-.46-.34-.89-.69-1.29-1.1.69.71-.29-.28-.28-.51,0,0,.43,1.04.11.17-.03-.09-.27-.59-.24-.62.05-.05.26,1.27.11.27-.03-.17-.06-.54-.12-.67.07.14.05,1.26.06.35,0-.3,0-.59,0-.89,0-.72-.15,1.02,0,.3.05-.24.07-.49.11-.74.01-.06.06-.53.11-.56-.1.05-.27.87-.03.14.17-.5.34-.99.53-1.49.3-.8.07-.21-.01-.03.18-.37.38-.73.58-1.08.28-.47.58-.93.89-1.38.15-.21.31-.42.47-.63.07-.1.51-.6.07-.09.75-.86,1.54-1.68,2.39-2.44,1.79-1.6,3.03-2.46,5.07-3.57s4.16-2,6.37-2.69c4.7-1.46,9.71-1.81,14.61-1.67,11.29.33,22.08,3.46,32.83,6.7,2.33.7,3.87-1.72,4.13-3.76s-.17-5.65-2.56-6.37h0Z"/>
  </g>
</svg>