<svg xmlns="http://www.w3.org/2000/svg" width="45mm" height="45mm" version="1.1" viewBox="0 0 45 45" fill_color="black"><defs><mask id="logo-cutout"><rect width="45.0" height="45.0" fill="white"/><rect x="16.65" y="16.65" width="11.7" height="11.7" fill="black"/></mask></defs><path d="M4,4H5V5H4zM5,4H6V5H5zM6,4H7V5H6zM7,4H8V5H7zM8,4H9V5H8zM9,4H10V5H9zM10,4H11V5H10zM12,4H13V5H12zM14,4H15V5H14zM16,4H17V5H16zM19,4H20V5H19zM22,4H23V5H22zM23,4H24V5H23zM24,4H25V5H24zM25,4H26V5H25zM27,4H28V5H27zM30,4H31V5H30zM31,4H32V5H31zM34,4H35V5H34zM35,4H36V5H35zM36,4H37V5H36zM37,4H38V5H37zM38,4H39V5H38zM39,4H40V5H39zM40,4H41V5H40zM4,5H5V6H4zM10,5H11V6H10zM12,5H13V6H12zM15,5H16V6H15zM17,5H18V6H17zM20,5H21V6H20zM22,5H23V6H22zM24,5H25V6H24zM25,5H26V6H25zM27,5H28V6H27zM28,5H29V6H28zM29,5H30V6H29zM31,5H32V6H31zM32,5H33V6H32zM34,5H35V6H34zM40,5H41V6H40zM4,6H5V7H4zM6,6H7V7H6zM7,6H8V7H7zM8,6H9V7H8zM10,6H11V7H10zM13,6H14V7H13zM14,6H15V7H14zM15,6H16V7H15zM16,6H17V7H16zM19,6H20V7H19zM20,6H21V7H20zM23,6H24V7H23zM26,6H27V7H26zM27,6H28V7H27zM28,6H29V7H28zM34,6H35V7H34zM36,6H37V7H36zM37,6H38V7H37zM38,6H39V7H38zM40,6H41V7H40zM4,7H5V8H4zM6,7H7V8H6zM7,7H8V8H7zM8,7H9V8H8zM10,7H11V8H10zM12,7H13V8H12zM13,7H14V8H13zM15,7H16V8H15zM16,7H17V8H16zM17,7H18V8H17zM20,7H21V8H20zM21,7H22V8H21zM22,7H23V8H22zM23,7H24V8H23zM24,7H25V8H24zM25,7H26V8H25zM26,7H27V8H26zM28,7H29V8H28zM30,7H31V8H30zM34,7H35V8H34zM36,7H37V8H36zM37,7H38V8H37zM38,7H39V8H38zM40,7H41V8H40zM4,8H5V9H4zM6,8H7V9H6zM7,8H8V9H7zM8,8H9V9H8zM10,8H11V9H10zM12,8H13V9H12zM13,8H14V9H13zM14,8H15V9H14zM19,8H20V9H19zM21,8H22V9H21zM22,8H23V9H22zM26,8H27V9H26zM30,8H31V9H30zM31,8H32V9H31zM34,8H35V9H34zM36,8H37V9H36zM37,8H38V9H37zM38,8H39V9H38zM40,8H41V9H40zM4,9H5V10H4zM10,9H11V10H10zM12,9H13V10H12zM13,9H14V10H13zM16,9H17V10H16zM18,9H19V10H18zM19,9H20V10H19zM25,9H26V10H25zM26,9H27V10H26zM27,9H28V10H27zM31,9H32V10H31zM32,9H33V10H32zM34,9H35V10H34zM40,9H41V10H40zM4,10H5V11H4zM5,10H6V11H5zM6,10H7V11H6zM7,10H8V11H7zM8,10H9V11H8zM9,10H10V11H9zM10,10H11V11H10zM12,10H13V11H12zM14,10H15V11H14zM16,10H17V11H16zM18,10H19V11H18zM20,10H21V11H20zM22,10H23V11H22zM24,10H25V11H24zM26,10H27V11H26zM28,10H29V11H28zM30,10H31V11H30zM32,10H33V11H32zM34,10H35V11H34zM35,10H36V11H35zM36,10H37V11H36zM37,10H38V11H37zM38,10H39V11H38zM39,10H40V11H39zM40,10H41V11H40zM13,11H14V12H13zM14,11H15V12H14zM15,11H16V12H15zM16,11H17V12H16zM17,11H18V12H17zM18,11H19V12H18zM19,11H20V12H19zM20,11H21V12H20zM25,11H26V12H25zM26,11H27V12H26zM29,11H30V12H29zM7,12H8V13H7zM10,12H11V13H10zM13,12H14V13H13zM15,12H16V13H15zM18,12H19V13H18zM19,12H20V13H19zM20,12H21V13H20zM21,12H22V13H21zM22,12H23V13H22zM25,12H26V13H25zM26,12H27V13H26zM28,12H29V13H28zM30,12H31V13H30zM31,12H32V13H31zM35,12H36V13H35zM36,12H37V13H36zM37,12H38V13H37zM39,12H40V13H39zM40,12H41V13H40zM7,13H8V14H7zM8,13H9V14H8zM9,13H10V14H9zM11,13H12V14H11zM12,13H13V14H12zM17,13H18V14H17zM19,13H20V14H19zM20,13H21V14H20zM26,13H27V14H26zM28,13H29V14H28zM31,13H32V14H31zM33,13H34V14H33zM34,13H35V14H34zM35,13H36V14H35zM37,13H38V14H37zM39,13H40V14H39zM40,13H41V14H40zM4,14H5V15H4zM6,14H7V15H6zM8,14H9V15H8zM10,14H11V15H10zM12,14H13V15H12zM14,14H15V15H14zM15,14H16V15H15zM18,14H19V15H18zM19,14H20V15H19zM20,14H21V15H20zM24,14H25V15H24zM25,14H26V15H25zM28,14H29V15H28zM32,14H33V15H32zM34,14H35V15H34zM35,14H36V15H35zM36,14H37V15H36zM38,14H39V15H38zM40,14H41V15H40zM5,15H6V16H5zM7,15H8V16H7zM8,15H9V16H8zM11,15H12V16H11zM12,15H13V16H12zM14,15H15V16H14zM18,15H19V16H18zM20,15H21V16H20zM21,15H22V16H21zM22,15H23V16H22zM24,15H25V16H24zM25,15H26V16H25zM28,15H29V16H28zM29,15H30V16H29zM31,15H32V16H31zM35,15H36V16H35zM37,15H38V16H37zM5,16H6V17H5zM7,16H8V17H7zM8,16H9V17H8zM10,16H11V17H10zM13,16H14V17H13zM14,16H15V17H14zM17,16H18V17H17zM21,16H22V17H21zM23,16H24V17H23zM27,16H28V17H27zM28,16H29V17H28zM29,16H30V17H29zM33,16H34V17H33zM34,16H35V17H34zM39,16H40V17H39zM40,16H41V17H40zM4,17H5V18H4zM6,17H7V18H6zM7,17H8V18H7zM8,17H9V18H8zM9,17H10V18H9zM12,17H13V18H12zM13,17H14V18H13zM15,17H16V18H15zM16,17H17V18H16zM18,17H19V18H18zM19,17H20V18H19zM20,17H21V18H20zM22,17H23V18H22zM25,17H26V18H25zM26,17H27V18H26zM28,17H29V18H28zM30,17H31V18H30zM34,17H35V18H34zM35,17H36V18H35zM37,17H38V18H37zM40,17H41V18H40zM5,18H6V19H5zM6,18H7V19H6zM7,18H8V19H7zM9,18H10V19H9zM10,18H11V19H10zM12,18H13V19H12zM13,18H14V19H13zM15,18H16V19H15zM16,18H17V19H16zM17,18H18V19H17zM18,18H19V19H18zM19,18H20V19H19zM20,18H21V19H20zM21,18H22V19H21zM22,18H23V19H22zM24,18H25V19H24zM25,18H26V19H25zM28,18H29V19H28zM32,18H33V19H32zM33,18H34V19H33zM36,18H37V19H36zM38,18H39V19H38zM40,18H41V19H40zM4,19H5V20H4zM5,19H6V20H5zM7,19H8V20H7zM8,19H9V20H8zM9,19H10V20H9zM11,19H12V20H11zM14,19H15V20H14zM17,19H18V20H17zM18,19H19V20H18zM19,19H20V20H19zM23,19H24V20H23zM27,19H28V20H27zM28,19H29V20H28zM29,19H30V20H29zM30,19H31V20H30zM32,19H33V20H32zM33,19H34V20H33zM34,19H35V20H34zM35,19H36V20H35zM39,19H40V20H39zM7,20H8V21H7zM8,20H9V21H8zM10,20H11V21H10zM11,20H12V21H11zM12,20H13V21H12zM13,20H14V21H13zM14,20H15V21H14zM17,20H18V21H17zM19,20H20V21H19zM23,20H24V21H23zM26,20H27V21H26zM27,20H28V21H27zM28,20H29V21H28zM31,20H32V21H31zM33,20H34V21H33zM34,20H35V21H34zM37,20H38V21H37zM38,20H39V21H38zM7,21H8V22H7zM9,21H10V22H9zM12,21H13V22H12zM15,21H16V22H15zM16,21H17V22H16zM17,21H18V22H17zM18,21H19V22H18zM19,21H20V22H19zM20,21H21V22H20zM21,21H22V22H21zM22,21H23V22H22zM23,21H24V22H23zM24,21H25V22H24zM25,21H26V22H25zM30,21H31V22H30zM32,21H33V22H32zM34,21H35V22H34zM36,21H37V22H36zM40,21H41V22H40zM5,22H6V23H5zM9,22H10V23H9zM10,22H11V23H10zM12,22H13V23H12zM14,22H15V23H14zM15,22H16V23H15zM18,22H19V23H18zM21,22H22V23H21zM23,22H24V23H23zM25,22H26V23H25zM28,22H29V23H28zM29,22H30V23H29zM32,22H33V23H32zM33,22H34V23H33zM36,22H37V23H36zM37,22H38V23H37zM39,22H40V23H39zM40,22H41V23H40zM5,23H6V24H5zM8,23H9V24H8zM9,23H10V24H9zM11,23H12V24H11zM12,23H13V24H12zM15,23H16V24H15zM18,23H19V24H18zM20,23H21V24H20zM24,23H25V24H24zM25,23H26V24H25zM27,23H28V24H27zM30,23H31V24H30zM32,23H33V24H32zM34,23H35V24H34zM35,23H36V24H35zM38,23H39V24H38zM39,23H40V24H39zM40,23H41V24H40zM5,24H6V25H5zM8,24H9V25H8zM10,24H11V25H10zM12,24H13V25H12zM13,24H14V25H13zM14,24H15V25H14zM15,24H16V25H15zM17,24H18V25H17zM18,24H19V25H18zM19,24H20V25H19zM20,24H21V25H20zM22,24H23V25H22zM24,24H25V25H24zM25,24H26V25H25zM26,24H27V25H26zM29,24H30V25H29zM30,24H31V25H30zM32,24H33V25H32zM34,24H35V25H34zM35,24H36V25H35zM36,24H37V25H36zM40,24H41V25H40zM5,25H6V26H5zM7,25H8V26H7zM11,25H12V26H11zM12,25H13V26H12zM13,25H14V26H13zM18,25H19V26H18zM19,25H20V26H19zM22,25H23V26H22zM24,25H25V26H24zM29,25H30V26H29zM30,25H31V26H30zM33,25H34V26H33zM34,25H35V26H34zM38,25H39V26H38zM40,25H41V26H40zM5,26H6V27H5zM6,26H7V27H6zM7,26H8V27H7zM8,26H9V27H8zM10,26H11V27H10zM11,26H12V27H11zM13,26H14V27H13zM14,26H15V27H14zM15,26H16V27H15zM16,26H17V27H16zM17,26H18V27H17zM22,26H23V27H22zM23,26H24V27H23zM27,26H28V27H27zM28,26H29V27H28zM29,26H30V27H29zM30,26H31V27H30zM33,26H34V27H33zM35,26H36V27H35zM36,26H37V27H36zM37,26H38V27H37zM39,26H40V27H39zM40,26H41V27H40zM4,27H5V28H4zM5,27H6V28H5zM6,27H7V28H6zM7,27H8V28H7zM9,27H10V28H9zM11,27H12V28H11zM12,27H13V28H12zM15,27H16V28H15zM16,27H17V28H16zM19,27H20V28H19zM20,27H21V28H20zM22,27H23V28H22zM23,27H24V28H23zM24,27H25V28H24zM28,27H29V28H28zM29,27H30V28H29zM33,27H34V28H33zM34,27H35V28H34zM36,27H37V28H36zM39,27H40V28H39zM4,28H5V29H4zM5,28H6V29H5zM6,28H7V29H6zM10,28H11V29H10zM14,28H15V29H14zM16,28H17V29H16zM18,28H19V29H18zM24,28H25V29H24zM26,28H27V29H26zM27,28H28V29H27zM30,28H31V29H30zM31,28H32V29H31zM32,28H33V29H32zM34,28H35V29H34zM37,28H38V29H37zM39,28H40V29H39zM40,28H41V29H40zM5,29H6V30H5zM11,29H12V30H11zM13,29H14V30H13zM19,29H20V30H19zM22,29H23V30H22zM23,29H24V30H23zM24,29H25V30H24zM26,29H27V30H26zM27,29H28V30H27zM30,29H31V30H30zM31,29H32V30H31zM33,29H34V30H33zM35,29H36V30H35zM39,29H40V30H39zM40,29H41V30H40zM4,30H5V31H4zM6,30H7V31H6zM8,30H9V31H8zM9,30H10V31H9zM10,30H11V31H10zM11,30H12V31H11zM13,30H14V31H13zM17,30H18V31H17zM19,30H20V31H19zM20,30H21V31H20zM21,30H22V31H21zM23,30H24V31H23zM25,30H26V31H25zM26,30H27V31H26zM27,30H28V31H27zM29,30H30V31H29zM31,30H32V31H31zM32,30H33V31H32zM33,30H34V31H33zM34,30H35V31H34zM35,30H36V31H35zM36,30H37V31H36zM40,30H41V31H40zM5,31H6V32H5zM8,31H9V32H8zM11,31H12V32H11zM12,31H13V32H12zM13,31H14V32H13zM14,31H15V32H14zM15,31H16V32H15zM16,31H17V32H16zM17,31H18V32H17zM18,31H19V32H18zM19,31H20V32H19zM23,31H24V32H23zM24,31H25V32H24zM25,31H26V32H25zM26,31H27V32H26zM27,31H28V32H27zM29,31H30V32H29zM30,31H31V32H30zM32,31H33V32H32zM34,31H35V32H34zM35,31H36V32H35zM39,31H40V32H39zM40,31H41V32H40zM4,32H5V33H4zM5,32H6V33H5zM9,32H10V33H9zM10,32H11V33H10zM12,32H13V33H12zM15,32H16V33H15zM16,32H17V33H16zM17,32H18V33H17zM19,32H20V33H19zM20,32H21V33H20zM21,32H22V33H21zM24,32H25V33H24zM25,32H26V33H25zM26,32H27V33H26zM28,32H29V33H28zM31,32H32V33H31zM32,32H33V33H32zM33,32H34V33H33zM34,32H35V33H34zM35,32H36V33H35zM36,32H37V33H36zM38,32H39V33H38zM39,32H40V33H39zM12,33H13V34H12zM15,33H16V34H15zM16,33H17V34H16zM17,33H18V34H17zM18,33H19V34H18zM20,33H21V34H20zM22,33H23V34H22zM23,33H24V34H23zM27,33H28V34H27zM28,33H29V34H28zM29,33H30V34H29zM30,33H31V34H30zM31,33H32V34H31zM32,33H33V34H32zM36,33H37V34H36zM40,33H41V34H40zM4,34H5V35H4zM5,34H6V35H5zM6,34H7V35H6zM7,34H8V35H7zM8,34H9V35H8zM9,34H10V35H9zM10,34H11V35H10zM13,34H14V35H13zM14,34H15V35H14zM18,34H19V35H18zM19,34H20V35H19zM20,34H21V35H20zM21,34H22V35H21zM22,34H23V35H22zM23,34H24V35H23zM26,34H27V35H26zM28,34H29V35H28zM31,34H32V35H31zM32,34H33V35H32zM34,34H35V35H34zM36,34H37V35H36zM38,34H39V35H38zM39,34H40V35H39zM40,34H41V35H40zM4,35H5V36H4zM10,35H11V36H10zM13,35H14V36H13zM18,35H19V36H18zM22,35H23V36H22zM24,35H25V36H24zM25,35H26V36H25zM28,35H29V36H28zM30,35H31V36H30zM31,35H32V36H31zM32,35H33V36H32zM36,35H37V36H36zM38,35H39V36H38zM40,35H41V36H40zM4,36H5V37H4zM6,36H7V37H6zM7,36H8V37H7zM8,36H9V37H8zM10,36H11V37H10zM13,36H14V37H13zM18,36H19V37H18zM19,36H20V37H19zM20,36H21V37H20zM21,36H22V37H21zM22,36H23V37H22zM23,36H24V37H23zM24,36H25V37H24zM26,36H27V37H26zM28,36H29V37H28zM29,36H30V37H29zM30,36H31V37H30zM32,36H33V37H32zM33,36H34V37H33zM34,36H35V37H34zM35,36H36V37H35zM36,36H37V37H36zM37,36H38V37H37zM39,36H40V37H39zM40,36H41V37H40zM4,37H5V38H4zM6,37H7V38H6zM7,37H8V38H7zM8,37H9V38H8zM10,37H11V38H10zM12,37H13V38H12zM15,37H16V38H15zM17,37H18V38H17zM19,37H20V38H19zM21,37H22V38H21zM25,37H26V38H25zM26,37H27V38H26zM27,37H28V38H27zM28,37H29V38H28zM29,37H30V38H29zM31,37H32V38H31zM33,37H34V38H33zM36,37H37V38H36zM37,37H38V38H37zM38,37H39V38H38zM39,37H40V38H39zM40,37H41V38H40zM4,38H5V39H4zM6,38H7V39H6zM7,38H8V39H7zM8,38H9V39H8zM10,38H11V39H10zM14,38H15V39H14zM15,38H16V39H15zM17,38H18V39H17zM18,38H19V39H18zM20,38H21V39H20zM21,38H22V39H21zM24,38H25V39H24zM25,38H26V39H25zM27,38H28V39H27zM28,38H29V39H28zM31,38H32V39H31zM33,38H34V39H33zM36,38H37V39H36zM37,38H38V39H37zM40,38H41V39H40zM4,39H5V40H4zM10,39H11V40H10zM13,39H14V40H13zM16,39H17V40H16zM19,39H20V40H19zM20,39H21V40H20zM22,39H23V40H22zM25,39H26V40H25zM27,39H28V40H27zM28,39H29V40H28zM29,39H30V40H29zM30,39H31V40H30zM32,39H33V40H32zM33,39H34V40H33zM35,39H36V40H35zM36,39H37V40H36zM4,40H5V41H4zM5,40H6V41H5zM6,40H7V41H6zM7,40H8V41H7zM8,40H9V41H8zM9,40H10V41H9zM10,40H11V41H10zM13,40H14V41H13zM14,40H15V41H14zM16,40H17V41H16zM19,40H20V41H19zM20,40H21V41H20zM23,40H24V41H23zM24,40H25V41H24zM27,40H28V41H27zM28,40H29V41H28zM29,40H30V41H29zM31,40H32V41H31zM32,40H33V41H32zM33,40H34V41H33zM34,40H35V41H34zM36,40H37V41H36zM37,40H38V41H37zM39,40H40V41H39zM40,40H41V41H40z" id="qr-path" fill="#8ccd10" fill-opacity="1" fill-rule="nonzero" stroke="none" mask="url(#logo-cutout)"/><svg id="Ebene_2" data-name="Ebene 2" viewBox="0 0 299.15 242.06" x="18.0" y="18.0" width="9.0" height="9.0">
  <defs>
    <style>
      .cls-1 {
        fill: #1d1d1b;
      }
    </style>
  </defs>
  <g id="Ebene_1-2" data-name="Ebene 1">
    <rect class="cls-1" x="96.23" y="23.29" width="162.38" height="38.81" transform="translate(-5.02 46.53) rotate(-14.73)"/>
    <rect class="cls-1" x="126.36" y="137.86" width="162.38" height="38.81" transform="translate(-33.17 57.96) rotate(-14.73)"/>
    <rect class="cls-1" x="126.72" y="89.04" width="135.98" height="38.81" transform="translate(139.35 324.34) rotate(-104.73)"/>
    <circle class="cls-1" cx="163.81" cy="218.82" r="23.23"/>
    <circle class="cls-1" cx="275.91" cy="189.34" r="23.23"/>
    <path class="cls-1" d="M77.28,34.92c-6.83-8.46-13.79-16.97-22.37-23.74C46.44,4.51,36.24-.57,25.19.05c-5.31.3-10.72,1.93-14.72,5.56s-6.35,9.84-4.81,15.39c3.2,11.53,16.15,14.34,26.35,16.32,13.52,2.62,27.04,5.23,40.56,7.84,2.36.46,3.85-1.53,4.13-3.76.17-1.33.12-2.79-.44-4.02-.39-.86-1.09-2.15-2.11-2.35-11.08-2.14-22.15-4.28-33.23-6.42-5.25-1.01-10.56-1.86-15.73-3.24-2.39-.64-4.77-1.42-7-2.5-1.83-.89-3.26-1.85-4.92-3.51-.57-.57-.12-.14-.01-.01-.15-.19-.3-.37-.44-.56-.17-.23-.31-.5-.49-.72-.39-.5.31.73.06.15-.09-.21-.19-.41-.27-.61-.15-.36,0-.7-.08-.16l.09.3c-.04-.16-.08-.32-.1-.48-.08-.66,0,1.22.04.28s-.04.42-.06.45c.04-.07.07-.5.08-.62.1-1.02-.33.76-.05.18.09-.18.18-.41.22-.61.12-.58-.43.69-.1.18.12-.19.21-.39.33-.58s.24-.38.37-.57c.22-.32.44-.56.06-.13.68-.78,1.42-1.49,2.24-2.11.06-.05.69-.5.37-.28s.34-.2.4-.24c.5-.3,1.02-.58,1.55-.83,2.16-1.01,4.02-1.47,6.27-1.73,4.86-.56,9.43.06,13.94,1.64s8.38,3.82,12.18,6.64c4.55,3.37,8.69,7.27,12.54,11.42.44.47.88.95,1.31,1.43-.38-.42.1.11.14.16.28.32.57.64.85.97.89,1.02,1.77,2.06,2.64,3.1,1.78,2.12,3.51,4.28,5.25,6.43.62.77,1.4,1.5,2.47,1.47.98-.02,1.92-.78,2.39-1.59,1.19-2.03,1.39-5.45-.18-7.39h0Z"/>
    <path class="cls-1" d="M72.44,57.45c-19.89-5.99-45.06-13.09-63.05,1.48-4.4,3.57-7.62,8.35-8.9,13.89s-.24,12.03,4.26,15.69c3.86,3.15,9.35,3.54,14.08,2.71,5.81-1.01,11.2-3.39,16.58-5.72,12.26-5.3,24.51-10.61,36.77-15.91,2.23-.97,2.75-4.4,2.24-6.49-.45-1.86-1.97-4.56-4.31-3.55-10.05,4.35-20.1,8.7-30.14,13.05-4.93,2.13-9.83,4.43-14.87,6.28-4.26,1.57-9.01,2.91-13.59,2.02.46.09-.15-.05-.2-.06-.24-.07-.48-.12-.71-.2-.46-.14-.91-.31-1.35-.5-.18-.08-1.25-.76-.69-.34-.46-.34-.89-.69-1.29-1.1.69.71-.29-.28-.28-.51,0,0,.43,1.04.11.17-.03-.09-.27-.59-.24-.62.05-.05.26,1.27.11.27-.03-.17-.06-.54-.12-.67.07.14.05,1.26.06.35,0-.3,0-.59,0-.89,0-.72-.15,1.02,0,.3.05-.24.07-.49.11-.74.01-.06.06-.53.11-.56-.1.05-.27.87-.03.14.17-.5.34-.99.53-1.49.3-.8.07-.21-.01-.03.18-.37.38-.73.58-1.08.28-.47.58-.93.89-1.38.15-.21.31-.42.47-.63.07-.1.51-.6.07-.09.75-.86,1.54-1.68,2.39-2.44,1.79-1.6,3.03-2.46,5.07-3.57s4.16-2,6.37-2.69c4.7-1.46,9.71-1.81,14.61-1.67,11.29.33,22.08,3.46,32.83,6.7,2.33.7,3.87-1.72,4.13-3.76s-.17-5.65-2.56-6.37h0Z"/>
  </g>
</svg></svg>